{
	"asset":{
		"generator":"Khronos glTF Blender I/O v4.4.56",
		"version":"2.0"
	},
	"scene":0,
	"scenes":[
		{
			"name":"Scene",
			"nodes":[
				1,
				2,
				3,
				4,
				5,
				6,
				7,
				8,
				9,
				10
			]
		}
	],
	"nodes":[
		{
			"mesh":0,
			"name":"part",
			"rotation":[
				0.764130175113678,
				0.18311807513237,
				-0.14414359629154205,
				0.6014943718910217
			],
			"translation":[
				0,
				1.5582201480865479,
				0.6361822485923767
			]
		},
		{
			"children":[
				0
			],
			"name":"Empty.003"
		},
		{
			"mesh":1,
			"name":"\u0413\u043e\u043b\u043e\u0432\u0430",
			"rotation":[
				0.115000881254673,
				0.23140893876552582,
				0.02755909599363804,
				0.9656423926353455
			],
			"translation":[
				0,
				0.6187987327575684,
				0.4092055857181549
			]
		},
		{
			"mesh":2,
			"name":"\u0422\u0435\u043b\u043e",
			"rotation":[
				0.11825694143772125,
				0,
				0,
				0.9929830431938171
			],
			"translation":[
				0,
				0.09333820641040802,
				0.28224802017211914
			]
		},
		{
			"mesh":3,
			"name":"\u041f\u043e\u044f\u0441",
			"rotation":[
				0.11825694143772125,
				0,
				0,
				0.9929830431938171
			],
			"translation":[
				0,
				-1.0737581253051758,
				-0.009158080443739891
			]
		},
		{
			"mesh":4,
			"name":"\u041d\u043e\u0433\u0430 ",
			"rotation":[
				0.20671124756336212,
				0.20671124756336212,
				-0.676217794418335,
				0.6762178540229797
			],
			"translation":[
				0.37028399109840393,
				-1.0884900093078613,
				-0.003978000022470951
			]
		},
		{
			"mesh":5,
			"name":"\u041d\u043e\u0433\u0430 2",
			"rotation":[
				-0.14182819426059723,
				-0.14182819426059723,
				-0.6927371621131897,
				0.6927371621131897
			],
			"translation":[
				-0.3715779483318329,
				-1.0884900093078613,
				-0.003978000022470951
			]
		},
		{
			"mesh":6,
			"name":"\u0420\u0443\u043a\u0430 1",
			"rotation":[
				0.5561149716377258,
				0.03492046892642975,
				0.09390530735254288,
				0.825044572353363
			],
			"translation":[
				0.3654769957065582,
				0.27455276250839233,
				0.32197362184524536
			]
		},
		{
			"mesh":7,
			"name":"\u041a\u0438\u0441\u0442\u044c \u0440\u0443\u043a\u0438 1",
			"rotation":[
				-0.9806535243988037,
				-0.07090673595666885,
				0.06632474809885025,
				0.16997629404067993
			],
			"translation":[
				0.8670490980148315,
				0.013170801103115082,
				-0.21049407124519348
			]
		},
		{
			"mesh":8,
			"name":"\u041a\u0438\u0441\u0442\u044c \u0440\u0443\u043a\u0438 2",
			"rotation":[
				-0.9534180164337158,
				0.12234809994697571,
				0.07159318029880524,
				0.2662695646286011
			],
			"scale":[
				-0.9999999403953552,
				-1,
				-1
			],
			"translation":[
				-0.699697732925415,
				0.5997040271759033,
				0.9466524124145508
			]
		},
		{
			"mesh":9,
			"name":"\u0420\u0443\u043a\u0430 2",
			"rotation":[
				0.6249063611030579,
				-0.04285501316189766,
				-0.09055989235639572,
				0.7742444276809692
			],
			"scale":[
				-0.9999999403953552,
				-1,
				-0.9999999403953552
			],
			"translation":[
				-0.3654769957065582,
				0.27455276250839233,
				0.32197362184524536
			]
		}
	],
	"materials":[
		{
			"doubleSided":true,
			"name":"Material.011",
			"pbrMetallicRoughness":{
				"baseColorTexture":{
					"index":0
				},
				"metallicFactor":0,
				"roughnessFactor":0.10000000149011612
			}
		},
		{
			"doubleSided":true,
			"name":"Material.002",
			"pbrMetallicRoughness":{
				"baseColorTexture":{
					"index":1
				},
				"metallicFactor":0,
				"roughnessFactor":0.10000000149011612
			}
		},
		{
			"doubleSided":true,
			"name":"Material.003",
			"pbrMetallicRoughness":{
				"baseColorTexture":{
					"index":2
				},
				"metallicFactor":0,
				"roughnessFactor":0.10000000149011612
			}
		},
		{
			"doubleSided":true,
			"name":"Material.008",
			"pbrMetallicRoughness":{
				"baseColorTexture":{
					"index":3
				},
				"metallicFactor":0,
				"roughnessFactor":0.10000000149011612
			}
		},
		{
			"doubleSided":true,
			"name":"Material.009",
			"pbrMetallicRoughness":{
				"baseColorTexture":{
					"index":4
				},
				"metallicFactor":0,
				"roughnessFactor":0.10000000149011612
			}
		},
		{
			"doubleSided":true,
			"name":"Material.010",
			"pbrMetallicRoughness":{
				"baseColorTexture":{
					"index":5
				},
				"metallicFactor":0,
				"roughnessFactor":0.10000000149011612
			}
		},
		{
			"doubleSided":true,
			"name":"Material.004",
			"pbrMetallicRoughness":{
				"baseColorTexture":{
					"index":6
				},
				"metallicFactor":0,
				"roughnessFactor":0.10000000149011612
			}
		},
		{
			"doubleSided":true,
			"name":"Material.006",
			"pbrMetallicRoughness":{
				"baseColorTexture":{
					"index":7
				},
				"metallicFactor":0,
				"roughnessFactor":0
			}
		},
		{
			"doubleSided":true,
			"name":"Material.007",
			"pbrMetallicRoughness":{
				"baseColorTexture":{
					"index":8
				},
				"metallicFactor":0,
				"roughnessFactor":0.5
			}
		},
		{
			"doubleSided":true,
			"name":"Material.005",
			"pbrMetallicRoughness":{
				"baseColorTexture":{
					"index":9
				},
				"metallicFactor":0,
				"roughnessFactor":0.10000000149011612
			}
		}
	],
	"meshes":[
		{
			"name":"64798.001",
			"primitives":[
				{
					"attributes":{
						"POSITION":0,
						"NORMAL":1,
						"TEXCOORD_0":2
					},
					"indices":3,
					"material":0
				}
			]
		},
		{
			"name":"Cylinder.001",
			"primitives":[
				{
					"attributes":{
						"POSITION":4,
						"NORMAL":5,
						"TEXCOORD_0":6
					},
					"indices":7,
					"material":1
				}
			]
		},
		{
			"name":"Cube.005",
			"primitives":[
				{
					"attributes":{
						"POSITION":8,
						"NORMAL":9,
						"TEXCOORD_0":10
					},
					"indices":11,
					"material":2
				}
			]
		},
		{
			"name":"Cube.006",
			"primitives":[
				{
					"attributes":{
						"POSITION":12,
						"NORMAL":13,
						"TEXCOORD_0":14
					},
					"indices":15,
					"material":3
				}
			]
		},
		{
			"name":"Cylinder.006",
			"primitives":[
				{
					"attributes":{
						"POSITION":16,
						"NORMAL":17,
						"TEXCOORD_0":18
					},
					"indices":19,
					"material":4
				}
			]
		},
		{
			"name":"Cylinder.002",
			"primitives":[
				{
					"attributes":{
						"POSITION":20,
						"NORMAL":21,
						"TEXCOORD_0":22
					},
					"indices":19,
					"material":5
				}
			]
		},
		{
			"name":"Circle.005",
			"primitives":[
				{
					"attributes":{
						"POSITION":23,
						"NORMAL":24,
						"TEXCOORD_0":25
					},
					"indices":26,
					"material":6
				}
			]
		},
		{
			"name":"Cylinder.005",
			"primitives":[
				{
					"attributes":{
						"POSITION":27,
						"NORMAL":28,
						"TEXCOORD_0":29
					},
					"indices":30,
					"material":7
				}
			]
		},
		{
			"name":"Cylinder.012",
			"primitives":[
				{
					"attributes":{
						"POSITION":31,
						"NORMAL":32,
						"TEXCOORD_0":33
					},
					"indices":34,
					"material":8
				}
			]
		},
		{
			"name":"Circle.002",
			"primitives":[
				{
					"attributes":{
						"POSITION":35,
						"NORMAL":36,
						"TEXCOORD_0":37
					},
					"indices":38,
					"material":9
				}
			]
		}
	],
	"textures":[
		{
			"sampler":0,
			"source":0
		},
		{
			"sampler":0,
			"source":0
		},
		{
			"sampler":0,
			"source":0
		},
		{
			"sampler":0,
			"source":0
		},
		{
			"sampler":0,
			"source":0
		},
		{
			"sampler":0,
			"source":0
		},
		{
			"sampler":0,
			"source":0
		},
		{
			"sampler":0,
			"source":0
		},
		{
			"sampler":0,
			"source":0
		},
		{
			"sampler":0,
			"source":0
		}
	],
	"images":[
		{
			"mimeType":"image/png",
			"name":"\u0417\u0430\u043f\u0438\u043a\u0430\u043d\u043a\u0430 2",
			"uri":"%D0%97%D0%B0%D0%BF%D0%B8%D0%BA%D0%B0%D0%BD%D0%BA%D0%B0%202.png"
		}
	],
	"accessors":[
		{
			"bufferView":0,
			"componentType":5126,
			"count":3910,
			"max":[
				0.6826643347740173,
				0.4865177273750305,
				0.7298252582550049
			],
			"min":[
				-0.6826643347740173,
				-0.7639293074607849,
				-0.42678704857826233
			],
			"type":"VEC3"
		},
		{
			"bufferView":1,
			"componentType":5126,
			"count":3910,
			"type":"VEC3"
		},
		{
			"bufferView":2,
			"componentType":5126,
			"count":3910,
			"type":"VEC2"
		},
		{
			"bufferView":3,
			"componentType":5123,
			"count":17148,
			"type":"SCALAR"
		},
		{
			"bufferView":4,
			"componentType":5126,
			"count":198258,
			"max":[
				0.49024635553359985,
				1.14493727684021,
				0.49024635553359985
			],
			"min":[
				-0.49024635553359985,
				1.2110209581805975e-06,
				-0.49024635553359985
			],
			"type":"VEC3"
		},
		{
			"bufferView":5,
			"componentType":5126,
			"count":198258,
			"type":"VEC3"
		},
		{
			"bufferView":6,
			"componentType":5126,
			"count":198258,
			"type":"VEC2"
		},
		{
			"bufferView":7,
			"componentType":5125,
			"count":1185792,
			"type":"SCALAR"
		},
		{
			"bufferView":8,
			"componentType":5126,
			"count":456,
			"max":[
				0.7548847794532776,
				0.5424850583076477,
				0.38487520813941956
			],
			"min":[
				-0.7548847794532776,
				-0.7399829030036926,
				-0.38487520813941956
			],
			"type":"VEC3"
		},
		{
			"bufferView":9,
			"componentType":5126,
			"count":456,
			"type":"VEC3"
		},
		{
			"bufferView":10,
			"componentType":5126,
			"count":456,
			"type":"VEC2"
		},
		{
			"bufferView":11,
			"componentType":5123,
			"count":2436,
			"type":"SCALAR"
		},
		{
			"bufferView":12,
			"componentType":5126,
			"count":2533,
			"max":[
				0.6902393102645874,
				0.46275794506073,
				0.3938921093940735
			],
			"min":[
				-0.6902393102645874,
				-0.3625299334526062,
				-0.3755759596824646
			],
			"type":"VEC3"
		},
		{
			"bufferView":13,
			"componentType":5126,
			"count":2533,
			"type":"VEC3"
		},
		{
			"bufferView":14,
			"componentType":5126,
			"count":2533,
			"type":"VEC2"
		},
		{
			"bufferView":15,
			"componentType":5123,
			"count":14490,
			"type":"SCALAR"
		},
		{
			"bufferView":16,
			"componentType":5126,
			"count":3562,
			"max":[
				1.1241168975830078,
				0.31804680824279785,
				0.4329010844230652
			],
			"min":[
				-0.3407261073589325,
				-0.318046897649765,
				-0.34072595834732056
			],
			"type":"VEC3"
		},
		{
			"bufferView":17,
			"componentType":5126,
			"count":3562,
			"type":"VEC3"
		},
		{
			"bufferView":18,
			"componentType":5126,
			"count":3562,
			"type":"VEC2"
		},
		{
			"bufferView":19,
			"componentType":5123,
			"count":20580,
			"type":"SCALAR"
		},
		{
			"bufferView":20,
			"componentType":5126,
			"count":3562,
			"max":[
				1.1241168975830078,
				0.31804680824279785,
				0.4329010844230652
			],
			"min":[
				-0.3407261073589325,
				-0.318046897649765,
				-0.34072595834732056
			],
			"type":"VEC3"
		},
		{
			"bufferView":21,
			"componentType":5126,
			"count":3562,
			"type":"VEC3"
		},
		{
			"bufferView":22,
			"componentType":5126,
			"count":3562,
			"type":"VEC2"
		},
		{
			"bufferView":23,
			"componentType":5126,
			"count":135737,
			"max":[
				0.5930807590484619,
				0.21795834600925446,
				0.4416022300720215
			],
			"min":[
				-0.0054743485525250435,
				-0.9648372530937195,
				-0.2633141875267029
			],
			"type":"VEC3"
		},
		{
			"bufferView":24,
			"componentType":5126,
			"count":135737,
			"type":"VEC3"
		},
		{
			"bufferView":25,
			"componentType":5126,
			"count":135737,
			"type":"VEC2"
		},
		{
			"bufferView":26,
			"componentType":5125,
			"count":780288,
			"type":"SCALAR"
		},
		{
			"bufferView":27,
			"componentType":5126,
			"count":119577,
			"max":[
				0.21955296397209167,
				0.7804057598114014,
				0.3006735146045685
			],
			"min":[
				-0.21933011710643768,
				-3.204189624739229e-08,
				-0.1465425193309784
			],
			"type":"VEC3"
		},
		{
			"bufferView":28,
			"componentType":5126,
			"count":119577,
			"type":"VEC3"
		},
		{
			"bufferView":29,
			"componentType":5126,
			"count":119577,
			"type":"VEC2"
		},
		{
			"bufferView":30,
			"componentType":5125,
			"count":683904,
			"type":"SCALAR"
		},
		{
			"bufferView":31,
			"componentType":5126,
			"count":119577,
			"max":[
				0.21955296397209167,
				0.7804057598114014,
				0.3006735146045685
			],
			"min":[
				-0.21933011710643768,
				-3.204189624739229e-08,
				-0.1465425193309784
			],
			"type":"VEC3"
		},
		{
			"bufferView":32,
			"componentType":5126,
			"count":119577,
			"type":"VEC3"
		},
		{
			"bufferView":33,
			"componentType":5126,
			"count":119577,
			"type":"VEC2"
		},
		{
			"bufferView":34,
			"componentType":5125,
			"count":683904,
			"type":"SCALAR"
		},
		{
			"bufferView":35,
			"componentType":5126,
			"count":135745,
			"max":[
				0.5930807590484619,
				0.21795834600925446,
				0.4416022300720215
			],
			"min":[
				-0.0054743485525250435,
				-0.9648372530937195,
				-0.2633141875267029
			],
			"type":"VEC3"
		},
		{
			"bufferView":36,
			"componentType":5126,
			"count":135745,
			"type":"VEC3"
		},
		{
			"bufferView":37,
			"componentType":5126,
			"count":135745,
			"type":"VEC2"
		},
		{
			"bufferView":38,
			"componentType":5125,
			"count":780288,
			"type":"SCALAR"
		}
	],
	"bufferViews":[
		{
			"buffer":0,
			"byteLength":46920,
			"byteOffset":0,
			"target":34962
		},
		{
			"buffer":0,
			"byteLength":46920,
			"byteOffset":46920,
			"target":34962
		},
		{
			"buffer":0,
			"byteLength":31280,
			"byteOffset":93840,
			"target":34962
		},
		{
			"buffer":0,
			"byteLength":34296,
			"byteOffset":125120,
			"target":34963
		},
		{
			"buffer":0,
			"byteLength":2379096,
			"byteOffset":159416,
			"target":34962
		},
		{
			"buffer":0,
			"byteLength":2379096,
			"byteOffset":2538512,
			"target":34962
		},
		{
			"buffer":0,
			"byteLength":1586064,
			"byteOffset":4917608,
			"target":34962
		},
		{
			"buffer":0,
			"byteLength":4743168,
			"byteOffset":6503672,
			"target":34963
		},
		{
			"buffer":0,
			"byteLength":5472,
			"byteOffset":11246840,
			"target":34962
		},
		{
			"buffer":0,
			"byteLength":5472,
			"byteOffset":11252312,
			"target":34962
		},
		{
			"buffer":0,
			"byteLength":3648,
			"byteOffset":11257784,
			"target":34962
		},
		{
			"buffer":0,
			"byteLength":4872,
			"byteOffset":11261432,
			"target":34963
		},
		{
			"buffer":0,
			"byteLength":30396,
			"byteOffset":11266304,
			"target":34962
		},
		{
			"buffer":0,
			"byteLength":30396,
			"byteOffset":11296700,
			"target":34962
		},
		{
			"buffer":0,
			"byteLength":20264,
			"byteOffset":11327096,
			"target":34962
		},
		{
			"buffer":0,
			"byteLength":28980,
			"byteOffset":11347360,
			"target":34963
		},
		{
			"buffer":0,
			"byteLength":42744,
			"byteOffset":11376340,
			"target":34962
		},
		{
			"buffer":0,
			"byteLength":42744,
			"byteOffset":11419084,
			"target":34962
		},
		{
			"buffer":0,
			"byteLength":28496,
			"byteOffset":11461828,
			"target":34962
		},
		{
			"buffer":0,
			"byteLength":41160,
			"byteOffset":11490324,
			"target":34963
		},
		{
			"buffer":0,
			"byteLength":42744,
			"byteOffset":11531484,
			"target":34962
		},
		{
			"buffer":0,
			"byteLength":42744,
			"byteOffset":11574228,
			"target":34962
		},
		{
			"buffer":0,
			"byteLength":28496,
			"byteOffset":11616972,
			"target":34962
		},
		{
			"buffer":0,
			"byteLength":1628844,
			"byteOffset":11645468,
			"target":34962
		},
		{
			"buffer":0,
			"byteLength":1628844,
			"byteOffset":13274312,
			"target":34962
		},
		{
			"buffer":0,
			"byteLength":1085896,
			"byteOffset":14903156,
			"target":34962
		},
		{
			"buffer":0,
			"byteLength":3121152,
			"byteOffset":15989052,
			"target":34963
		},
		{
			"buffer":0,
			"byteLength":1434924,
			"byteOffset":19110204,
			"target":34962
		},
		{
			"buffer":0,
			"byteLength":1434924,
			"byteOffset":20545128,
			"target":34962
		},
		{
			"buffer":0,
			"byteLength":956616,
			"byteOffset":21980052,
			"target":34962
		},
		{
			"buffer":0,
			"byteLength":2735616,
			"byteOffset":22936668,
			"target":34963
		},
		{
			"buffer":0,
			"byteLength":1434924,
			"byteOffset":25672284,
			"target":34962
		},
		{
			"buffer":0,
			"byteLength":1434924,
			"byteOffset":27107208,
			"target":34962
		},
		{
			"buffer":0,
			"byteLength":956616,
			"byteOffset":28542132,
			"target":34962
		},
		{
			"buffer":0,
			"byteLength":2735616,
			"byteOffset":29498748,
			"target":34963
		},
		{
			"buffer":0,
			"byteLength":1628940,
			"byteOffset":32234364,
			"target":34962
		},
		{
			"buffer":0,
			"byteLength":1628940,
			"byteOffset":33863304,
			"target":34962
		},
		{
			"buffer":0,
			"byteLength":1085960,
			"byteOffset":35492244,
			"target":34962
		},
		{
			"buffer":0,
			"byteLength":3121152,
			"byteOffset":36578204,
			"target":34963
		}
	],
	"samplers":[
		{
			"magFilter":9729,
			"minFilter":9987
		}
	],
	"buffers":[
		{
			"byteLength":39699356,
			"uri":"LegoJoker.bin"
		}
	]
}
